<svg xmlns="http://www.w3.org/2000/svg" width="148" height="162" viewBox="0 0 148 162">
    <g fill="none" fill-rule="evenodd" stroke-linecap="round">
        <g stroke="#4494D3" stroke-width="10">
            <g>
                <path d="M138 65.4c-3.07-8.487-6.954-16.69-11.619-24.502l-5.457-9.141c-8.94-14.959-23.151-25.538-40.01-29.765C64.01-2.268 46.524.358 31.639 9.357c-14.907 8.977-25.452 23.25-29.672 40.18C-2.242 66.49.351 84.063 9.29 99" transform="translate(-2167.000000, -494.000000) translate(2172.000000, 499.000000)"/>
                <path d="M126 125v-11.502c0-21.594-5.876-42.809-16.987-61.335l-5.453-9.095c-5.962-9.93-15.437-16.944-26.667-19.752-11.231-2.818-22.917-1.073-32.825 4.878-9.93 5.963-16.944 15.437-19.752 26.668-2.818 11.23-1.073 22.895 4.878 32.814l5.442 9.095c3.036 5.052 4.64 10.84 4.64 16.727v11.491" transform="translate(-2167.000000, -494.000000) translate(2172.000000, 499.000000)"/>
                <path d="M104 136v-22.56c0-17.834-4.833-35.35-13.985-50.657l-5.487-9.158c-6.207-10.36-19.614-13.72-29.934-7.505-10.33 6.225-13.68 19.66-7.483 30.022l5.476 9.157c5.083 8.513 7.778 18.24 7.778 28.14V136" transform="translate(-2167.000000, -494.000000) translate(2172.000000, 499.000000)"/>
                <path d="M66 65l5.355 9.102C78.32 85.934 82 99.474 82 113.274V152" transform="translate(-2167.000000, -494.000000) translate(2172.000000, 499.000000)"/>
            </g>
        </g>
    </g>
</svg>
