<?xml version="1.0" encoding="UTF-8"?>
<svg width="100px" height="100px" viewBox="0 0 100 100" version="1.1" xmlns="http://www.w3.org/2000/svg" xmlns:xlink="http://www.w3.org/1999/xlink">
    <title>instagram</title>
    <g id="Page-1" stroke="none" stroke-width="1" fill="none" fill-rule="evenodd">
        <g id="Über" transform="translate(-2256.000000, -14709.000000)">
            <g id="instagram" transform="translate(2256.000000, 14709.000000)">
                <rect id="Rectangle" x="0" y="0" width="100" height="100"></rect>
                <circle id="Oval" stroke="#FFFFFF" stroke-width="2" cx="50" cy="50" r="49"></circle>
                <path d="M64.3032103,28 L36.6967897,28 C31.9025753,28 28,31.8999294 28,36.6967897 L28,64.3032103 C28,69.1000706 31.9025753,73 36.6967897,73 L64.3032103,73 C69.0974247,73 73,69.1000706 73,64.3032103 L73,36.6967897 C73,31.8999294 69.0974247,28 64.3032103,28 L64.3032103,28 Z M66.7982126,33.1884407 L67.7930386,33.1831491 L67.7930386,40.8110301 L60.1889699,40.8348424 L60.1625118,33.2069614 L66.7982126,33.1884407 L66.7982126,33.1884407 Z M44.0786101,45.8804092 C45.5179327,43.8854657 47.8568321,42.5784337 50.5,42.5784337 C53.1431679,42.5784337 55.4820673,43.8854657 56.9213899,45.8804092 C57.8606538,47.1821496 58.4215663,48.7749294 58.4215663,50.5 C58.4215663,54.8655927 54.8682385,58.4189205 50.5,58.4189205 C46.1344073,58.4189205 42.5810795,54.8655927 42.5810795,50.5 C42.5810795,48.7749294 43.141992,47.1821496 44.0786101,45.8804092 L44.0786101,45.8804092 Z M68.6158866,64.3032103 C68.6158866,66.6817968 66.6817968,68.6158866 64.3032103,68.6158866 L36.6967897,68.6158866 C34.3182032,68.6158866 32.3841134,66.6817968 32.3841134,64.3032103 L32.3841134,45.8804092 L39.1044802,45.8804092 C38.5224012,47.3091486 38.1969661,48.8675329 38.1969661,50.5 C38.1969661,57.2838664 43.7161336,62.8056797 50.5,62.8056797 C57.2865122,62.8056797 62.8056797,57.2838664 62.8056797,50.5 C62.8056797,48.8675329 62.474953,47.3091486 61.8981656,45.8804092 L68.6158866,45.8804092 L68.6158866,64.3032103 L68.6158866,64.3032103 Z" id="Shape" fill="#FFFFFF"></path>
            </g>
        </g>
    </g>
</svg>